<?xml version="1.0" standalone="no"?>
<!DOCTYPE svg PUBLIC "-//W3C//DTD SVG 1.1//EN" "http://www.w3.org/Graphics/SVG/1.1/DTD/svg11.dtd" >
<svg xmlns="http://www.w3.org/2000/svg" xmlns:xlink="http://www.w3.org/1999/xlink" version="1.1">
<metadata>
Created by FontForge 20161116 at Fri Nov 15 13:35:43 2013
 By Jimmy Wärting
2006 Lukasz Dziedzic published by FSI FontShop International GmbH
</metadata>
<defs>
<font id="ClanOT-Medium" horiz-adv-x="1320" >
  <font-face 
    font-family="ClanOT-Medium"
    font-weight="500"
    font-stretch="normal"
    units-per-em="2048"
    panose-1="2 1 6 4 3 1 1 2 1 4"
    ascent="1612"
    descent="-436"
    x-height="1233"
    cap-height="1536"
    bbox="-29 -389 2089 1874"
    underline-thickness="79"
    underline-position="-167"
    unicode-range="U+000D-E000"
  />
<missing-glyph horiz-adv-x="748" 
d="M68 0v1365h544v-1365h-544zM136 68h408v1229h-408v-1229z" />
    <glyph glyph-name=".notdef" horiz-adv-x="748" 
d="M68 0v1365h544v-1365h-544zM136 68h408v1229h-408v-1229z" />
    <glyph glyph-name="glyph1" horiz-adv-x="0" 
 />
    <glyph glyph-name="glyph1" horiz-adv-x="0" 
 />
    <glyph glyph-name="glyph2" horiz-adv-x="682" 
 />
    <glyph glyph-name="uni000D" unicode="&#xd;" horiz-adv-x="577" 
 />
    <glyph glyph-name="space" unicode=" " horiz-adv-x="577" 
 />
    <glyph glyph-name="exclam" unicode="!" horiz-adv-x="620" 
d="M410 432h-201l-41 1104h283zM469 117q0 -140 -154 -140q-79 0 -116 33t-37 107q0 141 153 141q154 0 154 -141z" />
    <glyph glyph-name="quotedbl" unicode="&#x22;" horiz-adv-x="839" 
d="M502 1573h254l-47 -531h-170zM109 1573h253l-47 -531h-170z" />
    <glyph glyph-name="numbersign" unicode="#" 
d="M121 612h215l45 312h-258v204h283l53 408h207l-54 -408h203l51 408h205l-55 -408h188v-204h-211l-43 -312h252v-206h-276l-54 -406h-202l51 406h-203l-53 -406h-207l53 406h-190v206zM588 924l-45 -312h205l43 312h-203z" />
    <glyph glyph-name="dollar" unicode="$" 
d="M631 -168l-146 14l17 134q-218 23 -346 96l32 252q161 -90 342 -117l56 459q-53 19 -91 35t-86 40.5t-82 49t-69 59t-56 72.5t-34.5 88.5t-13.5 107.5q0 210 138 322.5t404 116.5l17 133l159 -15l-16 -127q162 -19 250 -61l-16 -242q-131 43 -267 58l-53 -404
q70 -25 122 -48.5t110.5 -63t95.5 -85t61.5 -114t24.5 -150.5q0 -239 -129 -352.5t-406 -118.5zM969 406q0 73 -60.5 120.5t-175.5 89.5l-55 -413q291 6 291 203zM393 1137q0 -66 58 -106.5t170 -78.5l45 363q-139 -3 -206 -51t-67 -127z" />
    <glyph glyph-name="percent" unicode="%" horiz-adv-x="1486" 
d="M692 1200q0 -358 -307 -358q-157 0 -231 87.5t-74 270.5q0 188 72.5 272t234.5 84q155 0 230 -83t75 -273zM516 1202q0 109 -30 150t-99 41q-70 0 -100.5 -40.5t-30.5 -150.5t30 -150t101 -40q69 0 99 40t30 150zM1063 1481l151 -121l-817 -1315l-151 119zM1407 338
q0 -358 -307 -358q-158 0 -232.5 88t-74.5 270q0 189 72.5 275.5t234.5 86.5q156 0 231.5 -85.5t75.5 -276.5zM1231 338q0 109 -30 148.5t-101 39.5q-69 0 -99 -39.5t-30 -148.5q0 -106 30 -146t99 -40q71 0 101 39t30 147z" />
    <glyph glyph-name="ampersand" unicode="&#x26;" horiz-adv-x="1447" 
d="M1430 221l-93 -239q-158 78 -325 200q-212 -209 -492 -209q-116 0 -204 35t-138.5 95t-75 133t-24.5 157q0 76 22 144t63 125.5t86.5 102t106.5 91.5q-131 203 -131 342q0 77 22.5 141t70 114.5t129.5 79t192 28.5q177 0 285 -81.5t108 -215.5q0 -40 -12 -79t-27 -69.5
t-48 -67.5t-55 -59.5t-69.5 -60t-70 -54t-76.5 -55.5q144 -168 311 -305q83 143 115 291h223q-10 -90 -50.5 -204t-107.5 -224q134 -92 265 -156zM563 221q142 0 268 107q-198 173 -342 348q-143 -129 -143 -260q0 -94 58.5 -144.5t158.5 -50.5zM469 1198q0 -82 80 -211
q111 76 166.5 132t56.5 120q0 57 -38 87t-101 30q-74 0 -119 -41.5t-45 -116.5z" />
    <glyph glyph-name="quotesingle" unicode="'" horiz-adv-x="446" 
d="M96 1573h254l-47 -531h-170z" />
    <glyph glyph-name="parenleft" unicode="(" horiz-adv-x="708" 
d="M500 1622l202 -16q-278 -403 -278 -932q0 -524 276 -932l-200 -16q-156 174 -241 420.5t-85 527.5q0 565 326 948z" />
    <glyph glyph-name="parenright" unicode=")" horiz-adv-x="706" 
d="M6 1606l201 16q325 -378 325 -948q0 -282 -84.5 -528.5t-240.5 -419.5l-201 16q277 405 277 932q0 259 -71 496t-206 436z" />
    <glyph glyph-name="asterisk" unicode="*" horiz-adv-x="755" 
d="M317 1612h125l19 -219l209 53l43 -129l-207 -82l127 -188l-96 -78l-154 174l-160 -174l-100 73l127 193l-209 82l47 129l211 -53z" />
    <glyph glyph-name="plus" unicode="+" horiz-adv-x="1228" 
d="M1090 569h-365v-358h-229v358h-359v244h359v361h229v-361h365v-244z" />
    <glyph glyph-name="comma" unicode="," horiz-adv-x="528" 
d="M262 281q79 0 117.5 -41.5t38.5 -112.5q0 -79 -52.5 -204.5t-115.5 -215.5l-94 23l53 250q-40 16 -69 55t-29 86q0 160 151 160z" />
    <glyph glyph-name="hyphen" unicode="-" horiz-adv-x="813" 
d="M123 797h567v-195h-567v195z" />
    <glyph glyph-name="period" unicode="." horiz-adv-x="534" 
d="M426 131q0 -154 -158 -154q-84 0 -120.5 35.5t-36.5 118.5q0 156 157 156q158 0 158 -156z" />
    <glyph glyph-name="slash" unicode="/" horiz-adv-x="925" 
d="M700 1614h226l-703 -1866h-219z" />
    <glyph glyph-name="zero" unicode="0" 
d="M1221 764q0 -416 -133.5 -601.5t-428.5 -185.5q-297 0 -428 184.5t-131 602.5q0 291 58.5 463.5t180 249.5t323.5 77q199 0 320 -76.5t180 -250t59 -463.5zM950 768q0 134 -11.5 228.5t-32.5 155t-57.5 95t-80 47.5t-106.5 13q-64 0 -108.5 -13.5t-81.5 -48.5t-58.5 -96
t-33 -155.5t-11.5 -227.5q0 -137 11.5 -232.5t33 -156.5t59 -95.5t81.5 -47.5t108 -13q63 0 106.5 13.5t80 48t57.5 96.5t32.5 157.5t11.5 231.5z" />
    <glyph glyph-name="one" unicode="1" 
d="M350 0v205h248v821l4 164l-4 4l-141 -88l-160 -96l-29 233l447 295h166v-1333h241v-205h-772z" />
    <glyph glyph-name="two" unicode="2" 
d="M1174 1116q0 -72 -20.5 -143t-64 -142.5t-95 -136t-131.5 -142t-154 -142.5t-181 -154v-6h648l-7 -250h-1005v186q54 53 139 133.5t136 129t120.5 118t111 116t88.5 106t72 105.5t41.5 96.5t16.5 96.5q0 98 -69 155.5t-212 57.5q-197 0 -383 -141l-67 230
q209 163 499 163q250 0 383.5 -117t133.5 -319z" />
    <glyph glyph-name="three" unicode="3" 
d="M1194 461q0 -226 -145 -352.5t-437 -126.5q-266 0 -462 118l55 224q187 -107 401 -107q158 0 240 68t82 186q0 79 -40 128t-139.5 76t-267.5 27v201q157 0 251.5 27t131.5 74t37 120q0 91 -73.5 139t-211.5 48q-216 0 -397 -140l-67 220q91 73 216.5 117t264.5 44
q248 0 385 -107t137 -300q0 -236 -227 -334v-4q266 -83 266 -346z" />
    <glyph glyph-name="four" unicode="4" 
d="M1235 309h-166v-309h-254v309h-692l-25 178l639 1049h332v-989h174zM823 547l11 573l8 166l-4 2l-84 -145l-271 -455l-86 -135l2 -6h424z" />
    <glyph glyph-name="five" unicode="5" 
d="M1184 526q0 -264 -137 -404t-418 -140q-268 0 -463 118l51 226q98 -56 186.5 -82.5t198.5 -26.5q163 0 236 71t73 216q0 125 -72 181t-227 56q-189 0 -331 -63l-101 108l64 750h858l10 -250h-653l-27 -346q132 33 258 33q241 0 367.5 -112.5t126.5 -334.5z" />
    <glyph glyph-name="six" unicode="6" 
d="M1206 535q0 -277 -136 -415t-396 -138q-140 0 -242.5 40t-175.5 127t-109 231t-36 347q0 410 167 618.5t492 208.5q196 0 348 -59l-20 -240q-140 50 -295 50q-204 0 -306 -100.5t-122 -317.5l4 -4q152 108 344 108q243 0 363 -113t120 -343zM938 539q0 122 -63.5 179.5
t-202.5 57.5q-75 0 -158 -33t-127 -86q3 -244 68.5 -341t216.5 -97q266 0 266 320z" />
    <glyph glyph-name="seven" unicode="7" 
d="M1212 1534v-238l-608 -1296h-311l649 1268h-825l12 266h1083z" />
    <glyph glyph-name="eight" unicode="8" 
d="M340 805v4q-176 115 -176 344q0 192 123 296.5t377 104.5q495 0 495 -403q0 -107 -49.5 -193.5t-140.5 -144.5v-4q114 -51 179.5 -138.5t65.5 -232.5q0 -227 -139 -341.5t-411 -114.5q-284 0 -419.5 114.5t-135.5 343.5q0 112 61 207.5t170 157.5zM948 420q0 45 -18 82
t-45 62t-72.5 47.5t-85.5 37t-99 34.5q-7 2 -10 3l-47 16q-200 -104 -200 -264q0 -123 70.5 -179t228.5 -56q278 0 278 217zM418 1141q0 -33 10 -61t23 -48t40.5 -39.5t49 -31.5t62 -27t65.5 -23t73 -22q90 48 132 104.5t42 134.5q0 102 -61 152.5t-192 50.5
q-244 0 -244 -190z" />
    <glyph glyph-name="nine" unicode="9" 
d="M1202 836q0 -448 -155.5 -651t-477.5 -203q-117 0 -202 16.5t-172 54.5l38 230q151 -62 310 -62q196 0 288.5 109t106.5 354l-4 4q-130 -98 -338 -98q-244 0 -367 123.5t-123 341.5q0 237 133 368t398 131q273 0 419 -180.5t146 -537.5zM932 928q-3 208 -79.5 298.5
t-219.5 90.5q-264 0 -264 -252q0 -126 66.5 -190t211.5 -64q193 0 285 117z" />
    <glyph glyph-name="colon" unicode=":" horiz-adv-x="534" 
d="M426 1010q0 -154 -158 -154q-84 0 -120.5 35.5t-36.5 118.5q0 155 157 155q158 0 158 -155zM426 131q0 -154 -158 -154q-84 0 -120.5 35.5t-36.5 118.5q0 156 157 156q158 0 158 -156z" />
    <glyph glyph-name="semicolon" unicode=";" horiz-adv-x="540" 
d="M432 1010q0 -154 -158 -154q-84 0 -120.5 35.5t-36.5 118.5q0 155 157 155q158 0 158 -155zM268 281q79 0 117.5 -41.5t38.5 -112.5q0 -79 -52.5 -204.5t-115.5 -215.5l-94 23l53 250q-40 16 -69 55t-29 86q0 160 151 160z" />
    <glyph glyph-name="less" unicode="&#x3c;" horiz-adv-x="1228" 
d="M1049 946l-404 -192l-149 -68v-6l149 -68l404 -192v-256l-869 452v134l867 462z" />
    <glyph glyph-name="equal" unicode="=" horiz-adv-x="1228" 
d="M1073 772h-919v209h919v-209zM1073 373h-919v209h919v-209z" />
    <glyph glyph-name="greater" unicode="&#x3e;" horiz-adv-x="1228" 
d="M180 164v256l402 190l151 68v6l-151 68l-402 194v266l869 -462v-134z" />
    <glyph glyph-name="question" unicode="?" horiz-adv-x="1046" 
d="M973 1180q0 -166 -92.5 -287t-268.5 -213l-10 -248h-205l-16 346q166 95 245 175t79 184q0 86 -59 130t-167 44q-193 0 -332 -123l-94 211q79 72 201.5 116t259.5 44q225 0 342 -100.5t117 -278.5zM653 117q0 -140 -153 -140q-80 0 -117 33t-37 107q0 141 154 141
q153 0 153 -141z" />
    <glyph glyph-name="at" unicode="@" horiz-adv-x="1798" 
d="M920 1192q122 0 188 -84l31 70l143 -9l-90 -544q-6 -37 -6 -74q0 -152 127 -152q109 0 176 109t67 326q0 139 -39 255.5t-113 202.5t-190 134.5t-262 48.5q-139 0 -255 -39.5t-198.5 -110.5t-140 -168t-85 -212t-27.5 -243q0 -134 26.5 -250.5t83 -213.5t139 -166
t199.5 -107.5t260 -38.5q112 0 213 19t175.5 51.5t126 64.5t92.5 68l61 -137q-117 -97 -285.5 -157t-382.5 -60q-408 0 -636 247t-228 680q0 150 35.5 287t107 253.5t173.5 202.5t242.5 134.5t305.5 48.5q228 0 400.5 -102t263 -281t90.5 -409q0 -127 -22.5 -230.5
t-61.5 -174t-92.5 -118t-114 -69t-127.5 -21.5q-185 0 -250 148q-114 -148 -288 -148q-127 0 -206 94.5t-79 276.5q0 156 59 293.5t164 221t230 83.5zM993 637l51 307q-35 62 -112 62q-103 0 -176.5 -125.5t-73.5 -284.5q0 -86 33 -132t96 -46q67 0 118 60.5t64 158.5z" />
    <glyph glyph-name="A" unicode="A" horiz-adv-x="1480" 
d="M1141 0l-101 330h-614l-102 -330h-301l546 1536h338l551 -1536h-317zM733 1329l-47 -160l-186 -600h467l-185 600l-43 160h-6z" />
    <glyph glyph-name="B" unicode="B" horiz-adv-x="1411" 
d="M1305 442q0 -442 -523 -442h-612v1536h596q239 0 360 -100.5t121 -288.5q0 -251 -207 -332v-4q265 -73 265 -369zM1022 465q0 113 -57.5 164t-186.5 51h-336v-442h342q123 0 180.5 51t57.5 176zM977 1096q0 106 -52 151t-169 45h-314v-397h326q107 0 158 49t51 152z" />
    <glyph glyph-name="C" unicode="C" horiz-adv-x="1230" 
d="M1155 1495l-31 -248q-145 56 -311 56q-153 0 -241 -49t-129.5 -162.5t-41.5 -313.5q0 -159 22.5 -264t74 -169.5t128.5 -91t193 -26.5q160 0 309 66l33 -236q-78 -38 -180 -62t-199 -24q-346 0 -512 197.5t-166 611.5q0 394 169.5 588.5t525.5 194.5q91 0 190 -19.5
t166 -48.5z" />
    <glyph glyph-name="D" unicode="D" horiz-adv-x="1505" 
d="M1399 774q0 -410 -164 -592t-508 -182h-557v1536h553q357 0 516.5 -180t159.5 -582zM1104 776q0 198 -39.5 307t-119.5 151t-224 42h-268v-1018h268q105 0 173 21t117.5 78t71 158.5t21.5 260.5z" />
    <glyph glyph-name="E" unicode="E" horiz-adv-x="1271" 
d="M453 252h737l-6 -252h-1014v1536h983l4 -256h-704v-371h598v-231h-598v-426z" />
    <glyph glyph-name="F" unicode="F" horiz-adv-x="1214" 
d="M1157 1274h-704v-393h587l-2 -248h-585v-633h-283v1536h981z" />
    <glyph glyph-name="G" unicode="G" horiz-adv-x="1386" 
d="M1270 821v-764q-86 -39 -208 -62.5t-245 -23.5q-376 0 -544.5 193t-168.5 600q0 412 173 605.5t548 193.5q227 0 416 -72l-29 -252q-168 68 -372 68q-124 0 -205 -25.5t-135 -88.5t-76.5 -165t-22.5 -260q0 -208 40.5 -324t127 -164.5t240.5 -48.5q113 0 211 29v561h250z
" />
    <glyph glyph-name="H" unicode="H" horiz-adv-x="1529" 
d="M1360 0h-283v659h-624v-659h-283v1536h283v-616h624v616h283v-1536z" />
    <glyph glyph-name="I" unicode="I" horiz-adv-x="675" 
d="M195 0v1536h286v-1536h-286z" />
    <glyph glyph-name="J" unicode="J" horiz-adv-x="1126" 
d="M956 1536v-993q0 -572 -579 -572q-179 0 -307 74l18 246q95 -66 248 -66q332 0 332 324v987h288z" />
    <glyph glyph-name="K" unicode="K" horiz-adv-x="1458" 
d="M1419 0h-344l-432 674h-190v-674h-283v1536h283v-627h196l414 627h330l-492 -729z" />
    <glyph glyph-name="L" unicode="L" horiz-adv-x="1169" 
d="M455 260h669l-6 -260h-948v1536h285v-1276z" />
    <glyph glyph-name="M" unicode="M" horiz-adv-x="1882" 
d="M170 1536h315l394 -979l59 -154h6l57 154l398 979h313v-1536h-258v887l4 166l-6 2l-59 -156l-361 -899h-192l-359 899l-59 156l-4 -2l2 -166v-887h-250v1536z" />
    <glyph glyph-name="N" unicode="N" horiz-adv-x="1540" 
d="M1370 0h-199l-655 936l-92 139l-4 -2l2 -166v-907h-252v1536h246l612 -897l92 -137l4 2l-4 164v868h250v-1536z" />
    <glyph glyph-name="O" unicode="O" horiz-adv-x="1525" 
d="M1419 768q0 -423 -152.5 -610t-502.5 -187q-347 0 -503.5 190.5t-156.5 606.5q0 417 154.5 605t505.5 188q349 0 502 -187.5t153 -605.5zM1124 768q0 161 -18 263t-63 162.5t-110.5 83.5t-170.5 23q-82 0 -139 -15t-101 -50t-69.5 -96.5t-38.5 -152t-13 -218.5
q0 -160 19 -263t64 -164.5t111 -85.5t169 -24q136 0 212 46.5t112 162.5t36 328z" />
    <glyph glyph-name="P" unicode="P" horiz-adv-x="1347" 
d="M1272 1028q0 -245 -136 -369t-434 -124h-249v-535h-283v1536h532q300 0 435 -122.5t135 -385.5zM981 1030q0 148 -63.5 206t-215.5 58h-249v-528h249q75 0 124.5 11.5t85.5 41t52.5 81t16.5 130.5z" />
    <glyph glyph-name="Q" unicode="Q" horiz-adv-x="1525" 
d="M1419 768q0 -346 -101 -530.5t-325 -235.5l307 -231l-331 -84l-248 284q-324 10 -470.5 201t-146.5 596q0 417 154.5 605t505.5 188q349 0 502 -187.5t153 -605.5zM1124 768q0 161 -18 263t-63 162.5t-110.5 83.5t-170.5 23q-82 0 -139 -15t-101 -50t-69.5 -96.5
t-38.5 -152t-13 -218.5q0 -160 19 -263t64 -164.5t111 -85.5t169 -24q136 0 212 46.5t112 162.5t36 328z" />
    <glyph glyph-name="R" unicode="R" horiz-adv-x="1376" 
d="M1247 1075q0 -169 -71.5 -276.5t-204.5 -139.5l379 -659h-332l-303 604h-262v-604h-283v1536h543q271 0 402.5 -113t131.5 -348zM954 1065q0 126 -55 177.5t-184 51.5h-262v-471h254q133 0 190 53.5t57 188.5z" />
    <glyph glyph-name="S" unicode="S" horiz-adv-x="1173" 
d="M1104 451q0 -224 -145 -352t-404 -128q-260 0 -463 115l39 252q200 -115 422 -115q278 0 278 209q0 46 -25 82t-67.5 61t-97 46.5t-115.5 43t-121.5 46t-115 60t-97 80t-67.5 111t-25 148.5q0 96 32 176.5t95 143t167 98t239 35.5q235 0 420 -82l-37 -244
q-194 70 -369 70q-146 0 -210 -50.5t-64 -132.5q0 -56 40.5 -97.5t105 -68t142 -52t155.5 -60.5t142.5 -82t105 -127t40.5 -186z" />
    <glyph glyph-name="T" unicode="T" horiz-adv-x="1208" 
d="M1180 1274h-432v-1274h-287v1274h-432l6 262h1139z" />
    <glyph glyph-name="U" unicode="U" horiz-adv-x="1497" 
d="M1352 1536v-985q0 -580 -602 -580q-605 0 -605 580v985h281v-983q0 -165 79 -242.5t245 -77.5t242.5 77t76.5 243v983h283z" />
    <glyph glyph-name="V" unicode="V" horiz-adv-x="1437" 
d="M1118 1536h293l-532 -1536h-320l-532 1536h311l340 -1106l45 -158h6l45 158z" />
    <glyph glyph-name="W" unicode="W" horiz-adv-x="2097" 
d="M901 1536h307l246 -1098l35 -162h6l29 162l219 1098h280l-364 -1536h-342l-234 1096l-30 164h-6l-33 -164l-234 -1096h-340l-366 1536h293l219 -1104l30 -162h7l30 162z" />
    <glyph glyph-name="X" unicode="X" horiz-adv-x="1443" 
d="M1364 1536l-442 -735l467 -801h-324l-266 487l-74 148h-6l-74 -150l-258 -485h-330l457 795l-444 741h338l237 -428l78 -145h6l76 145l235 428h324z" />
    <glyph glyph-name="Y" unicode="Y" horiz-adv-x="1402" 
d="M27 1536h319l295 -627l68 -149h6l63 151l289 625h309l-526 -1032v-504h-289v504z" />
    <glyph glyph-name="Z" unicode="Z" horiz-adv-x="1263" 
d="M1167 0h-1083v188l647 951l94 131l-2 4h-721l11 262h1054v-213l-632 -928l-95 -129l2 -6h729z" />
    <glyph glyph-name="bracketleft" unicode="[" horiz-adv-x="696" 
d="M174 -266v1882h516v-191h-278v-1505h278v-186h-516z" />
    <glyph glyph-name="backslash" unicode="\" horiz-adv-x="778" 
d="M-8 1614h213l610 -1866h-211z" />
    <glyph glyph-name="bracketright" unicode="]" horiz-adv-x="696" 
d="M522 1616v-1882h-516v184h281v1507h-281v191h516z" />
    <glyph glyph-name="asciicircum" unicode="^" 
d="M991 950l-332 500l-327 -500h-213l452 697h183l446 -697h-209z" />
    <glyph glyph-name="underscore" unicode="_" horiz-adv-x="864" 
d="M41 -84h786v-164h-786v164z" />
    <glyph glyph-name="grave" unicode="`" horiz-adv-x="823" 
d="M618 1348h-200l-234 297h303z" />
    <glyph glyph-name="a" unicode="a" horiz-adv-x="1181" 
d="M852 0l-23 131l-6 2q-57 -73 -148 -113t-200 -40q-178 0 -279.5 100.5t-101.5 300.5q0 176 115.5 278.5t327.5 102.5q137 0 256 -39v92q0 115 -60 165t-198 50q-183 0 -342 -69l-23 215q180 79 412 79q254 0 361.5 -113t107.5 -366v-776h-199zM793 362v181
q-77 35 -209 35q-244 0 -244 -193q0 -195 207 -195q97 0 171.5 52t74.5 120z" />
    <glyph glyph-name="b" unicode="b" horiz-adv-x="1296" 
d="M1210 618q0 -333 -127 -488t-368 -155q-105 0 -194 37t-150 101l-37 -113h-176v1604l260 14v-320l-4 -163l6 -5q126 123 325 123q465 0 465 -635zM944 614q0 124 -17.5 205t-54 124.5t-83.5 60t-117 16.5q-82 0 -148 -31.5t-106 -89.5v-584q35 -55 100.5 -90t155.5 -35
q66 0 112.5 18t84 63.5t55.5 130.5t18 212z" />
    <glyph glyph-name="c" unicode="c" horiz-adv-x="1015" 
d="M932 1196l-17 -229q-110 47 -227 47q-185 0 -259.5 -90t-74.5 -306q0 -219 82 -317t246 -98q137 0 242 57l18 -209q-119 -78 -315 -78q-543 0 -543 645q0 315 133.5 474t415.5 159q166 0 299 -55z" />
    <glyph glyph-name="d" unicode="d" horiz-adv-x="1292" 
d="M1139 0h-203l-29 117l-6 2q-119 -144 -344 -144q-243 0 -358 158t-115 488q0 311 117 472.5t354 161.5q196 0 324 -125l4 5l-4 163v306l260 14v-1618zM879 315v588q-34 52 -99.5 82.5t-148.5 30.5q-152 0 -214.5 -91t-62.5 -315q0 -236 59.5 -326.5t215.5 -90.5
q96 0 158.5 35.5t91.5 86.5z" />
    <glyph glyph-name="e" unicode="e" horiz-adv-x="1191" 
d="M680 -23q-309 0 -452.5 163.5t-143.5 498.5q0 298 132.5 456t395.5 158q235 0 366.5 -142t131.5 -429q0 -70 -6 -125h-750q9 -190 93 -269t264 -79q176 0 331 67l31 -215q-171 -84 -393 -84zM348 733h522q-6 299 -256 299q-133 0 -195 -70.5t-71 -228.5z" />
    <glyph glyph-name="f" unicode="f" horiz-adv-x="827" 
d="M483 0h-260v1034h-168v199h166v53q0 156 104 252t312 96q104 0 190 -28l-16 -172q-65 14 -125 14q-203 0 -203 -168v-47h287v-199h-287v-1034z" />
    <glyph glyph-name="g" unicode="g" horiz-adv-x="1187" 
d="M582 508q-91 0 -162 14q-66 -26 -66 -73q0 -28 23.5 -46.5t68.5 -21.5l297 -21q214 -15 306 -89.5t92 -215.5q0 -387 -547 -387q-248 0 -369 88t-121 238q0 126 107 213q-96 61 -96 176q0 63 38.5 117t114.5 88q-141 90 -141 289q0 376 455 376q194 0 305 -71l205 73
l55 -129l-137 -102q24 -62 24 -147q0 -183 -106.5 -276t-345.5 -93zM698 135l-297 23q-73 -61 -73 -131q0 -158 260 -158q93 0 156.5 10.5t98 30.5t48.5 45.5t14 60.5q0 56 -43 83t-164 36zM584 1053q-108 0 -154.5 -43.5t-46.5 -137.5q0 -101 50 -140.5t145 -39.5
q117 0 161.5 41.5t44.5 138.5q0 99 -46.5 140t-153.5 41z" />
    <glyph glyph-name="h" unicode="h" horiz-adv-x="1290" 
d="M1159 0h-262v799q0 219 -233 219q-80 0 -146.5 -32t-99.5 -83v-903h-260v1604l260 14v-315l-4 -164l6 -4q128 120 325 120t305.5 -119t108.5 -337v-799z" />
    <glyph glyph-name="i" unicode="i" horiz-adv-x="647" 
d="M455 0h-265v1225l265 14v-1239zM479 1518q0 -62 -38 -91.5t-117 -29.5q-80 0 -118 27.5t-38 93.5q0 124 156 124q155 0 155 -124z" />
    <glyph glyph-name="j" unicode="j" horiz-adv-x="645" 
d="M455 1239v-1241q0 -91 -25 -156.5t-71 -102.5t-102.5 -54t-127.5 -17q-82 0 -158 27l15 188q40 -12 80 -12q60 0 94.5 33t34.5 102v1219zM475 1520q0 -62 -37 -91.5t-116 -29.5q-81 0 -118.5 27.5t-37.5 93.5q0 122 156 122q79 0 116 -30t37 -92z" />
    <glyph glyph-name="k" unicode="k" horiz-adv-x="1236" 
d="M418 1618v-848h176l303 463h295l-375 -561l387 -672h-297l-313 553h-176v-553h-260v1604z" />
    <glyph glyph-name="l" unicode="l" horiz-adv-x="620" 
d="M440 0h-262v1604l262 14v-1618z" />
    <glyph glyph-name="m" unicode="m" horiz-adv-x="1912" 
d="M1782 0h-260v801q0 108 -56.5 161.5t-160.5 53.5q-93 0 -151 -51.5t-58 -149.5v-815h-260v815q0 104 -56 153.5t-153 49.5q-66 0 -126.5 -31t-92.5 -82v-905h-261v1227l187 12l45 -123q64 65 146 101t171 36q237 0 330 -176q113 176 348 176q186 0 297 -114.5t111 -333.5
v-805z" />
    <glyph glyph-name="n" unicode="n" horiz-adv-x="1280" 
d="M1149 0h-260v797q0 114 -59.5 167.5t-176.5 53.5q-71 0 -139.5 -30.5t-105.5 -82.5v-905h-261v1227l187 14l41 -119q142 133 350 133q198 0 311 -117.5t113 -338.5v-799z" />
    <glyph glyph-name="o" unicode="o" horiz-adv-x="1269" 
d="M1184 612q0 -341 -129 -491t-418 -150q-288 0 -420.5 150.5t-132.5 490.5q0 339 132.5 491t420.5 152t417.5 -151.5t129.5 -491.5zM354 612q0 -162 29 -254t89.5 -130t164.5 -38t163 38t87 129.5t28 254.5t-28 254.5t-87 129.5t-163 38q-105 0 -165 -38t-89 -129.5
t-29 -254.5z" />
    <glyph glyph-name="p" unicode="p" horiz-adv-x="1286" 
d="M1200 618q0 -324 -126 -482.5t-353 -158.5q-197 0 -307 115l-6 -2l4 -166v-233h-265v1534l185 12l51 -117q139 133 348 133q117 0 201.5 -33t146 -106.5t91.5 -197t30 -298.5zM932 621q0 154 -30.5 242t-87 121.5t-150.5 33.5q-168 0 -252 -121v-571q77 -125 243 -125
q66 0 113.5 18t86 63t58 129.5t19.5 209.5z" />
    <glyph glyph-name="q" unicode="q" horiz-adv-x="1286" 
d="M1135 -309l-261 -2v229l5 166l-5 2q-119 -104 -307 -104q-228 0 -355.5 153.5t-127.5 478.5q0 639 489 639q232 0 357 -143h6l33 121h166v-1540zM874 336v563q-27 49 -93.5 82t-151.5 33q-104 0 -162 -35t-85.5 -122t-27.5 -245q0 -224 64.5 -314.5t212.5 -90.5
q99 0 165 39.5t78 89.5z" />
    <glyph glyph-name="r" unicode="r" horiz-adv-x="925" 
d="M408 0h-261v1225l209 12l23 -231h6q57 119 148 182t206 63q76 0 129 -16l-16 -264q-65 20 -129 20q-137 0 -226 -100.5t-89 -269.5v-621z" />
    <glyph glyph-name="s" unicode="s" horiz-adv-x="1013" 
d="M938 375q0 -188 -112 -294t-343 -106q-227 0 -383 93l31 221q69 -45 166 -70.5t186 -25.5q108 0 160.5 43t52.5 114q0 37 -20.5 65.5t-55 47.5t-80 35.5t-95 32.5t-99 34.5t-95 46.5t-80 64t-55 90.5t-20.5 122.5q0 166 115.5 265t335.5 99q186 0 342 -69l-23 -217
q-149 63 -323 63q-92 0 -144.5 -35t-52.5 -96q0 -39 25.5 -67.5t67 -45.5t94.5 -35.5t109 -34.5t109 -44.5t94.5 -64.5t67 -95.5t25.5 -136.5z" />
    <glyph glyph-name="t" unicode="t" horiz-adv-x="815" 
d="M758 1032h-289v-686q0 -153 162 -153q60 0 100 14l17 -195q-73 -32 -193 -32q-171 0 -258.5 93.5t-87.5 266.5v692h-154v201h162l47 289l205 20v-309h289v-201z" />
    <glyph glyph-name="u" unicode="u" horiz-adv-x="1263" 
d="M1133 1233v-811q0 -219 -125.5 -332t-376.5 -113q-250 0 -375 114.5t-125 330.5v811h260v-805q0 -215 242 -215q239 0 239 215v805h261z" />
    <glyph glyph-name="v" unicode="v" horiz-adv-x="1323" 
d="M987 1233h285l-459 -1233h-305l-459 1233h287l274 -844l49 -158h7l47 158z" />
    <glyph glyph-name="w" unicode="w" horiz-adv-x="1806" 
d="M772 1233h275l192 -862l33 -162h6l27 164l165 860h254l-284 -1233h-324l-168 795l-30 163h-7l-32 -163l-177 -795h-319l-301 1233h262l172 -858l31 -162h6l31 162z" />
    <glyph glyph-name="x" unicode="x" horiz-adv-x="1257" 
d="M891 0l-195 360l-73 148h-7l-73 -150l-191 -358h-291l385 623l-376 610h305l182 -340l76 -145h6l74 147l180 338h293l-365 -604l375 -629h-305z" />
    <glyph glyph-name="y" unicode="y" horiz-adv-x="1323" 
d="M377 -137q70 0 118.5 30t82.5 105l6 18l-535 1217h299l305 -819l56 -156h6l41 160l239 815h279l-436 -1237q-66 -178 -166 -255t-250 -77q-116 0 -201 39l23 191q61 -31 133 -31z" />
    <glyph glyph-name="z" unicode="z" horiz-adv-x="1105" 
d="M997 1047l-493 -693l-98 -127l2 -6h604l-8 -221h-902v186l496 691l98 129l-2 4h-573l10 223h866v-186z" />
    <glyph glyph-name="braceleft" unicode="{" horiz-adv-x="776" 
d="M543 899q0 -74 -31.5 -131t-89.5 -86v-6q58 -31 89.5 -87t31.5 -128q0 -73 -13.5 -187t-13.5 -178q0 -75 46.5 -120.5t142.5 -45.5h65v-198h-53q-233 0 -334.5 83t-101.5 246q0 72 17 204.5t17 199.5q0 62 -38.5 104.5t-102.5 53.5v112q64 11 102.5 53.5t38.5 104.5
q0 67 -17 199t-17 204q0 164 101.5 247t334.5 83h53v-199h-65q-97 0 -143 -44.5t-46 -120.5q0 -64 13.5 -177.5t13.5 -185.5z" />
    <glyph glyph-name="bar" unicode="|" horiz-adv-x="585" 
d="M193 -365v2022h202v-2022h-202z" />
    <glyph glyph-name="braceright" unicode="}" horiz-adv-x="776" 
d="M233 461q0 73 31.5 128.5t91.5 86.5v6q-60 29 -91.5 85.5t-31.5 131.5q0 72 13.5 185.5t13.5 177.5q0 76 -46 120.5t-142 44.5h-66v199h53q233 0 334 -83t101 -247q0 -72 -16.5 -204t-16.5 -199q0 -62 38.5 -104.5t102.5 -53.5v-112q-64 -11 -102.5 -53.5t-38.5 -104.5
q0 -67 16.5 -199t16.5 -205q0 -164 -101 -246.5t-334 -82.5h-53v198h66q95 0 141.5 45.5t46.5 120.5q0 64 -13.5 178t-13.5 187z" />
    <glyph glyph-name="asciitilde" unicode="~" 
d="M319 1237h-151q24 352 283 352q53 0 114 -21.5t106 -47t99.5 -47t95.5 -21.5q100 0 133 111h152q-12 -175 -84.5 -263t-198.5 -88q-53 0 -113 21.5t-104.5 47.5t-97.5 47.5t-94 21.5q-55 0 -90.5 -30.5t-49.5 -82.5z" />
    <glyph glyph-name="uni00A0" unicode="&#xa0;" horiz-adv-x="577" 
 />
    <glyph glyph-name="cent" unicode="&#xa2;" 
d="M1047 1196l-17 -229q-110 47 -227 47q-185 0 -259.5 -90t-74.5 -306q0 -219 82 -317t246 -98q136 0 241 57l19 -209q-97 -64 -250 -76l-14 -251h-205l16 262q-405 71 -405 632q0 287 110 444t344 183l19 250h202l-18 -252q95 -11 191 -47z" />
    <glyph glyph-name="sterling" unicode="&#xa3;" 
d="M160 657l-10 211h102q-49 142 -49 244q0 75 18 139.5t60.5 122t107 98.5t163 65t222.5 24q205 0 377 -70l-33 -242q-145 62 -313 62t-246 -62.5t-78 -169.5q0 -81 37 -211h516v-211h-465q11 -75 11 -129q0 -100 -37.5 -176t-106.5 -119l2 -4q157 35 400 35q200 0 387 -24
l-15 -254q-261 30 -497 30q-289 0 -576 -26l-12 246q91 24 144 102t53 178q0 71 -13 141h-149z" />
    <glyph glyph-name="yen" unicode="&#xa5;" 
d="M252 717h192l-389 819h312l292 -836h7l51 156l241 680h304l-379 -819h196v-162h-264v-90h266v-162h-266v-303h-299v303h-264v162h264v90h-264v162z" />
    <glyph glyph-name="dieresis" unicode="&#xa8;" horiz-adv-x="823" 
d="M354 1522q0 -117 -116 -117q-60 0 -87.5 27t-27.5 90q0 118 115 118q116 0 116 -118zM707 1522q0 -117 -115 -117q-60 0 -88.5 27t-28.5 90q0 118 117 118q115 0 115 -118z" />
    <glyph glyph-name="copyright" unicode="&#xa9;" horiz-adv-x="1816" 
d="M104 776q0 217 108 401.5t293.5 292t403.5 107.5q163 0 311.5 -63.5t256 -171t171.5 -255.5t64 -311q0 -218 -108 -403.5t-293 -293.5t-402 -108q-218 0 -403.5 108t-293.5 293.5t-108 403.5zM240 776q0 -178 87.5 -330.5t242.5 -243.5t339 -91q137 0 262 52.5t214.5 142
t142.5 212.5t53 258q0 131 -53 252t-142.5 209.5t-214.5 141.5t-262 53q-138 0 -263 -53t-213.5 -141.5t-140.5 -209t-52 -252.5zM1247 1188l-20 -189q-46 26 -113 43t-125 17q-157 0 -243.5 -78t-86.5 -205q0 -133 88.5 -212t245.5 -79q68 0 135 19t115 47l27 -182
q-63 -53 -157 -90t-191 -37q-151 0 -271.5 70t-187 191.5t-66.5 270.5q0 103 36 197t102 166t166.5 114.5t220.5 42.5q99 0 183 -29.5t142 -76.5z" />
    <glyph glyph-name="guillemotleft" unicode="&#xab;" horiz-adv-x="1308" 
d="M1153 885l-358 -223l358 -226v-207l-618 422v21l618 422v-209zM668 885l-359 -223l359 -226v-207l-619 422v21l619 422v-209z" />
    <glyph glyph-name="uni00AD" unicode="&#xad;" horiz-adv-x="813" 
d="M123 797h567v-195h-567v195z" />
    <glyph glyph-name="registered" unicode="&#xae;" horiz-adv-x="909" 
d="M76 1325q0 160 111.5 273.5t269.5 113.5q157 0 268 -113.5t111 -273.5q0 -158 -111 -270.5t-268 -112.5q-158 0 -269.5 112.5t-111.5 270.5zM150 1325q0 -125 90.5 -215t216.5 -90t215.5 90t89.5 215q0 127 -89.5 216t-215.5 89q-127 0 -217 -89t-90 -216zM647 1407
q0 -40 -19 -71t-55 -44l82 -166h-116l-68 152h-72v-152h-110v416h186q172 0 172 -135zM541 1401q0 49 -64 49h-78v-98h84q28 0 43 13.5t15 35.5z" />
    <glyph glyph-name="acute" unicode="&#xb4;" horiz-adv-x="823" 
d="M438 1645h303l-239 -297h-199z" />
    <glyph glyph-name="cedilla" unicode="&#xb8;" horiz-adv-x="823" 
d="M236 -389l139 407l172 5l-74 -412h-237z" />
    <glyph glyph-name="guillemotright" unicode="&#xbb;" horiz-adv-x="1308" 
d="M614 229v207l357 226l-357 223v209l621 -422v-21zM131 229v207l356 226l-356 223v209l621 -422v-21z" />
    <glyph glyph-name="Agrave" unicode="&#xc0;" horiz-adv-x="1480" 
d="M1141 0l-101 330h-614l-102 -330h-301l546 1536h338l551 -1536h-317zM733 1329l-47 -160l-186 -600h467l-185 600l-43 160h-6zM879 1630h-213l-254 244h315z" />
    <glyph glyph-name="Aring" unicode="&#xc5;" horiz-adv-x="1480" 
d="M498 1647q0 188 235 188q122 0 181 -50t59 -138q0 -96 -55 -142l540 -1505h-317l-101 330h-614l-102 -330h-301l532 1499q-57 45 -57 148zM733 1329l-47 -160l-186 -600h467l-185 600l-43 160h-6zM635 1638q0 -36 22.5 -53.5t79.5 -17.5q55 0 78 17t23 54q0 76 -101 76
q-56 0 -79 -19t-23 -57z" />
    <glyph glyph-name="AE" unicode="&#xc6;" horiz-adv-x="2170" 
d="M2066 1280h-720l28 -371h576v-231h-557l34 -426h662l-6 -252h-922l-24 332h-576l-164 -332h-336l840 1536h1159zM1059 1350l-70 -152l-311 -629h440l-45 613l-8 166z" />
    <glyph glyph-name="Eacute" unicode="&#xc9;" horiz-adv-x="1271" 
d="M453 252h737l-6 -252h-1014v1536h983l4 -256h-704v-371h598v-231h-598v-426zM680 1870h340l-277 -242h-211z" />
    <glyph glyph-name="Ecircumflex" unicode="&#xca;" horiz-adv-x="1271" 
d="M453 252h737l-6 -252h-1014v1536h983l4 -256h-704v-371h598v-231h-598v-426zM537 1872h278l227 -246h-235l-129 152l-129 -152h-232z" />
    <glyph glyph-name="Ograve" unicode="&#xd2;" horiz-adv-x="1525" 
d="M1419 768q0 -423 -152.5 -610t-502.5 -187q-347 0 -503.5 190.5t-156.5 606.5q0 417 154.5 605t505.5 188q349 0 502 -187.5t153 -605.5zM1124 768q0 161 -18 263t-63 162.5t-110.5 83.5t-170.5 23q-82 0 -139 -15t-101 -50t-69.5 -96.5t-38.5 -152t-13 -218.5
q0 -160 19 -263t64 -164.5t111 -85.5t169 -24q136 0 212 46.5t112 162.5t36 328zM936 1630h-213l-254 244h315z" />
    <glyph glyph-name="Oacute" unicode="&#xd3;" horiz-adv-x="1525" 
d="M1419 768q0 -423 -152.5 -610t-502.5 -187q-347 0 -503.5 190.5t-156.5 606.5q0 417 154.5 605t505.5 188q349 0 502 -187.5t153 -605.5zM1124 768q0 161 -18 263t-63 162.5t-110.5 83.5t-170.5 23q-82 0 -139 -15t-101 -50t-69.5 -96.5t-38.5 -152t-13 -218.5
q0 -160 19 -263t64 -164.5t111 -85.5t169 -24q136 0 212 46.5t112 162.5t36 328zM766 1870h340l-277 -242h-211z" />
    <glyph glyph-name="Ocircumflex" unicode="&#xd4;" horiz-adv-x="1525" 
d="M1419 768q0 -423 -152.5 -610t-502.5 -187q-347 0 -503.5 190.5t-156.5 606.5q0 417 154.5 605t505.5 188q349 0 502 -187.5t153 -605.5zM1124 768q0 161 -18 263t-63 162.5t-110.5 83.5t-170.5 23q-82 0 -139 -15t-101 -50t-69.5 -96.5t-38.5 -152t-13 -218.5
q0 -160 19 -263t64 -164.5t111 -85.5t169 -24q136 0 212 46.5t112 162.5t36 328zM623 1872h278l227 -246h-235l-129 152l-129 -152h-232z" />
    <glyph glyph-name="Oslash" unicode="&#xd8;" horiz-adv-x="1525" 
d="M219 -33l-135 127l119 152q-99 185 -99 522q0 417 154.5 605t505.5 188q300 0 453 -138l116 140l135 -131l-135 -164q88 -186 88 -500q0 -423 -152.5 -610t-504.5 -187q-286 0 -440 127zM401 768q0 -179 23 -291l616 721q-41 55 -108 78.5t-168 23.5q-137 0 -213 -44.5
t-113 -160t-37 -327.5zM1124 768q0 150 -16 268l-612 -710q77 -95 268 -95q136 0 212 46.5t112 162.5t36 328z" />
    <glyph glyph-name="agrave" unicode="&#xe0;" horiz-adv-x="1181" 
d="M852 0l-23 131l-6 2q-57 -73 -148 -113t-200 -40q-178 0 -279.5 100.5t-101.5 300.5q0 176 115.5 278.5t327.5 102.5q137 0 256 -39v92q0 115 -60 165t-198 50q-183 0 -342 -69l-23 215q180 79 412 79q254 0 361.5 -113t107.5 -366v-776h-199zM793 362v181
q-77 35 -209 35q-244 0 -244 -193q0 -195 207 -195q97 0 171.5 52t74.5 120zM719 1348h-201l-233 297h303z" />
    <glyph glyph-name="aring" unicode="&#xe5;" horiz-adv-x="1181" 
d="M852 0l-23 131l-6 2q-57 -73 -148 -113t-200 -40q-178 0 -279.5 100.5t-101.5 300.5q0 176 115.5 278.5t327.5 102.5q137 0 256 -39v92q0 115 -60 165t-198 50q-183 0 -342 -69l-23 215q180 79 412 79q254 0 361.5 -113t107.5 -366v-776h-199zM793 362v181
q-77 35 -209 35q-244 0 -244 -193q0 -195 207 -195q97 0 171.5 52t74.5 120zM354 1522q0 176 234 176q116 0 175.5 -47.5t59.5 -128.5q0 -176 -235 -176q-234 0 -234 176zM483 1522q0 -72 109 -72q106 0 106 72q0 71 -106 71q-109 0 -109 -71z" />
    <glyph glyph-name="ae" unicode="&#xe6;" horiz-adv-x="1875" 
d="M582 1253q270 0 364 -149q130 149 367 149q221 0 350 -143t129 -428q0 -70 -6 -125h-748q9 -190 93.5 -269t263.5 -79q172 0 331 72l29 -220q-168 -84 -393 -84q-330 0 -461 197q-62 -94 -166 -145.5t-235 -51.5q-195 0 -300.5 100.5t-105.5 301.5q0 176 115.5 277.5
t327.5 101.5q137 0 256 -39v94q0 115 -60 165t-198 50q-181 0 -342 -70l-23 216q191 79 412 79zM793 387v154q-75 34 -209 34q-246 0 -246 -192q0 -195 209 -195q105 0 175.5 56t70.5 143zM1034 733h520q-6 299 -256 299q-133 0 -194.5 -70.5t-69.5 -228.5z" />
    <glyph glyph-name="eacute" unicode="&#xe9;" horiz-adv-x="1191" 
d="M680 -23q-309 0 -452.5 163.5t-143.5 498.5q0 298 132.5 456t395.5 158q235 0 366.5 -142t131.5 -429q0 -70 -6 -125h-750q9 -190 93 -269t264 -79q176 0 331 67l31 -215q-171 -84 -393 -84zM348 733h522q-6 299 -256 299q-133 0 -195 -70.5t-71 -228.5zM598 1645h303
l-239 -297h-199z" />
    <glyph glyph-name="ecircumflex" unicode="&#xea;" horiz-adv-x="1191" 
d="M680 -23q-309 0 -452.5 163.5t-143.5 498.5q0 298 132.5 456t395.5 158q235 0 366.5 -142t131.5 -429q0 -70 -6 -125h-750q9 -190 93 -269t264 -79q176 0 331 67l31 -215q-171 -84 -393 -84zM348 733h522q-6 299 -256 299q-133 0 -195 -70.5t-71 -228.5zM496 1645h229
l209 -297h-199l-123 188l-125 -188h-196z" />
    <glyph glyph-name="ograve" unicode="&#xf2;" horiz-adv-x="1269" 
d="M1184 612q0 -341 -129 -491t-418 -150q-288 0 -420.5 150.5t-132.5 490.5q0 339 132.5 491t420.5 152t417.5 -151.5t129.5 -491.5zM354 612q0 -162 29 -254t89.5 -130t164.5 -38t163 38t87 129.5t28 254.5t-28 254.5t-87 129.5t-163 38q-105 0 -165 -38t-89 -129.5
t-29 -254.5zM770 1348h-201l-233 297h303z" />
    <glyph glyph-name="oacute" unicode="&#xf3;" horiz-adv-x="1269" 
d="M1184 612q0 -341 -129 -491t-418 -150q-288 0 -420.5 150.5t-132.5 490.5q0 339 132.5 491t420.5 152t417.5 -151.5t129.5 -491.5zM354 612q0 -162 29 -254t89.5 -130t164.5 -38t163 38t87 129.5t28 254.5t-28 254.5t-87 129.5t-163 38q-105 0 -165 -38t-89 -129.5
t-29 -254.5zM623 1645h303l-240 -297h-199z" />
    <glyph glyph-name="ocircumflex" unicode="&#xf4;" horiz-adv-x="1269" 
d="M1184 612q0 -341 -129 -491t-418 -150q-288 0 -420.5 150.5t-132.5 490.5q0 339 132.5 491t420.5 152t417.5 -151.5t129.5 -491.5zM354 612q0 -162 29 -254t89.5 -130t164.5 -38t163 38t87 129.5t28 254.5t-28 254.5t-87 129.5t-163 38q-105 0 -165 -38t-89 -129.5
t-29 -254.5zM520 1645h230l208 -297h-198l-123 188l-125 -188h-197z" />
    <glyph glyph-name="oslash" unicode="&#xf8;" horiz-adv-x="1269" 
d="M180 -20l-108 104l90 115q-78 147 -78 413q0 339 132.5 491t418.5 152q223 0 350 -90l76 97l110 -105l-81 -104q94 -152 94 -441q0 -341 -130 -491t-419 -150q-244 0 -375 105zM913 612q0 114 -14 217l-489 -538q33 -54 88 -77.5t139 -23.5q103 0 161.5 38t86.5 129.5
t28 254.5zM352 612q0 -97 10 -182l480 526q-64 78 -207 78q-105 0 -165 -38t-89 -129.5t-29 -254.5z" />
    <glyph glyph-name="circumflex" unicode="&#x2c6;" horiz-adv-x="823" 
d="M297 1645h229l209 -297h-198l-123 188l-125 -188h-197z" />
    <glyph glyph-name="ring" unicode="&#x2da;" horiz-adv-x="823" 
d="M180 1522q0 176 234 176q116 0 175.5 -47.5t59.5 -128.5q0 -176 -235 -176q-234 0 -234 176zM309 1522q0 -72 109 -72q106 0 106 72q0 71 -106 71q-109 0 -109 -71z" />
    <glyph glyph-name="tilde" unicode="&#x2dc;" horiz-adv-x="823" 
d="M215 1380l-123 2q8 117 60 188.5t137 71.5q45 0 86 -19t66.5 -41t57.5 -41t60 -19q56 0 78 98l121 -2q-6 -117 -60 -187.5t-137 -70.5q-43 0 -84 18.5t-67 41t-57.5 41t-59.5 18.5q-27 0 -48 -27.5t-30 -71.5z" />
    <glyph glyph-name="uni2000" unicode="&#x2000;" horiz-adv-x="937" 
 />
    <glyph glyph-name="uni2001" unicode="&#x2001;" horiz-adv-x="1874" 
 />
    <glyph glyph-name="uni2002" unicode="&#x2002;" horiz-adv-x="937" 
 />
    <glyph glyph-name="uni2003" unicode="&#x2003;" horiz-adv-x="1874" 
 />
    <glyph glyph-name="uni2004" unicode="&#x2004;" horiz-adv-x="624" 
 />
    <glyph glyph-name="uni2005" unicode="&#x2005;" horiz-adv-x="468" 
 />
    <glyph glyph-name="uni2006" unicode="&#x2006;" horiz-adv-x="312" 
 />
    <glyph glyph-name="uni2007" unicode="&#x2007;" horiz-adv-x="312" 
 />
    <glyph glyph-name="uni2008" unicode="&#x2008;" horiz-adv-x="234" 
 />
    <glyph glyph-name="uni2009" unicode="&#x2009;" horiz-adv-x="374" 
 />
    <glyph glyph-name="uni200A" unicode="&#x200a;" horiz-adv-x="104" 
 />
    <glyph glyph-name="uni2010" unicode="&#x2010;" horiz-adv-x="813" 
d="M123 797h567v-195h-567v195z" />
    <glyph glyph-name="uni2011" unicode="&#x2011;" horiz-adv-x="813" 
d="M123 797h567v-195h-567v195z" />
    <glyph glyph-name="figuredash" unicode="&#x2012;" horiz-adv-x="813" 
d="M123 797h567v-195h-567v195z" />
    <glyph glyph-name="endash" unicode="&#x2013;" horiz-adv-x="1073" 
d="M123 797h825v-195h-825v195z" />
    <glyph glyph-name="emdash" unicode="&#x2014;" horiz-adv-x="1437" 
d="M123 797h1192v-195h-1192v195z" />
    <glyph glyph-name="quoteleft" unicode="&#x2018;" horiz-adv-x="499" 
d="M252 1110q-79 0 -117.5 41.5t-38.5 112.5q0 79 52.5 204t115.5 215l94 -22l-53 -250q40 -16 69 -55t29 -86q0 -160 -151 -160z" />
    <glyph glyph-name="quoteright" unicode="&#x2019;" horiz-adv-x="499" 
d="M248 1606q78 0 116.5 -41.5t38.5 -112.5q0 -79 -52 -205t-115 -215l-95 23l54 250q-41 16 -70 55t-29 86q0 74 36.5 117t115.5 43z" />
    <glyph glyph-name="quotesinglbase" unicode="&#x201a;" horiz-adv-x="499" 
d="M248 281q78 0 116.5 -41.5t38.5 -112.5q0 -79 -52 -205t-115 -215l-95 23l54 250q-41 16 -70 55t-29 86q0 74 36.5 117t115.5 43z" />
    <glyph glyph-name="quotedblleft" unicode="&#x201c;" horiz-adv-x="913" 
d="M666 1110q-79 0 -117.5 41.5t-38.5 112.5q0 79 52.5 204t115.5 215l94 -22l-53 -250q40 -16 69 -55t29 -86q0 -160 -151 -160zM252 1110q-79 0 -117.5 41.5t-38.5 112.5q0 79 52.5 204t115.5 215l94 -22l-53 -250q40 -16 69 -55t29 -86q0 -160 -151 -160z" />
    <glyph glyph-name="quotedblright" unicode="&#x201d;" horiz-adv-x="913" 
d="M248 1606q78 0 116.5 -41.5t38.5 -112.5q0 -79 -52 -205t-115 -215l-95 23l54 250q-41 16 -70 55t-29 86q0 74 36.5 117t115.5 43zM662 1606q78 0 116.5 -41.5t38.5 -112.5q0 -79 -52.5 -204.5t-115.5 -215.5l-94 23l53 250q-40 16 -69 55t-29 86q0 74 36.5 117t115.5 43
z" />
    <glyph glyph-name="quotedblbase" unicode="&#x201e;" horiz-adv-x="913" 
d="M248 281q78 0 116.5 -41.5t38.5 -112.5q0 -79 -52 -205t-115 -215l-95 23l54 250q-41 16 -70 55t-29 86q0 74 36.5 117t115.5 43zM662 281q78 0 116.5 -41.5t38.5 -112.5q0 -79 -52.5 -204.5t-115.5 -215.5l-94 23l53 250q-40 16 -69 55t-29 86q0 74 36.5 117t115.5 43z
" />
    <glyph glyph-name="ellipsis" unicode="&#x2026;" horiz-adv-x="1433" 
d="M1323 131q0 -154 -158 -154q-84 0 -120.5 35.5t-36.5 118.5q0 156 157 156q158 0 158 -156zM883 131q0 -154 -158 -154q-84 0 -121 35.5t-37 118.5q0 156 158 156t158 -156zM426 131q0 -154 -158 -154q-84 0 -120.5 35.5t-36.5 118.5q0 156 157 156q158 0 158 -156z" />
    <glyph glyph-name="uni202F" unicode="&#x202f;" horiz-adv-x="374" 
 />
    <glyph glyph-name="guilsinglleft" unicode="&#x2039;" horiz-adv-x="817" 
d="M696 885l-358 -223l358 -226v-207l-618 422v21l618 422v-209z" />
    <glyph glyph-name="guilsinglright" unicode="&#x203a;" horiz-adv-x="817" 
d="M121 229v207l356 226l-356 223v209l620 -422v-21z" />
    <glyph glyph-name="uni205F" unicode="&#x205f;" horiz-adv-x="468" 
 />
    <glyph glyph-name="Euro" unicode="&#x20ac;" 
d="M1030 709l-35 -146h-465q33 -185 135 -268.5t281 -83.5q149 0 309 80l21 -215q-163 -94 -402 -94q-283 0 -436.5 142.5t-191.5 438.5h-176v146h163v106h-163v150h176q40 274 206 427.5t439 153.5q223 0 366 -67l-55 -230q-121 47 -252 47q-348 0 -415 -331h571l-35 -150
h-555v-106h514z" />
    <glyph glyph-name="trademark" unicode="&#x2122;" horiz-adv-x="1390" 
d="M1307 983h-136v236l5 165l-7 2l-57 -157l-94 -246h-115l-96 244l-57 155l-5 -2l3 -166v-231h-136v580h197l96 -242l58 -154h6l55 156l94 240h189v-580zM541 1421h-164v-438h-160v438h-164v142h488v-142z" />
    <glyph glyph-name="uniE000" unicode="&#xe000;" horiz-adv-x="1228" 
d="M0 1229h1229v-1229h-1229v1229z" />
    </font>
</defs>
</svg>
